<svg xmlns="http://www.w3.org/2000/svg" viewBox="0 0 1600 900" preserveAspectRatio="xMidYMid slice">
  <defs>
    <linearGradient id="sky" x1="0" x2="0" y1="0" y2="1">
      <stop offset="0%" stop-color="#7dd3fc"/>
      <stop offset="52%" stop-color="#a7f3d0"/>
      <stop offset="100%" stop-color="#14532d"/>
    </linearGradient>
    <radialGradient id="sun" cx="76%" cy="18%" r="24%">
      <stop offset="0%" stop-color="#fef3c7" stop-opacity="0.95"/>
      <stop offset="100%" stop-color="#fef3c7" stop-opacity="0"/>
    </radialGradient>
    <linearGradient id="hillBack" x1="0" x2="1" y1="0" y2="1">
      <stop offset="0%" stop-color="#16a34a"/>
      <stop offset="100%" stop-color="#166534"/>
    </linearGradient>
    <linearGradient id="hillFront" x1="0" x2="1" y1="0" y2="1">
      <stop offset="0%" stop-color="#22c55e"/>
      <stop offset="100%" stop-color="#14532d"/>
    </linearGradient>
  </defs>

  <rect width="1600" height="900" fill="url(#sky)"/>
  <rect width="1600" height="900" fill="url(#sun)"/>

  <path d="M0 610 C220 560 380 640 560 590 C730 540 920 630 1130 580 C1320 540 1460 570 1600 520 L1600 900 L0 900 Z" fill="url(#hillBack)" opacity="0.9"/>
  <path d="M0 690 C210 650 390 760 620 700 C860 640 1080 760 1330 700 C1450 670 1540 690 1600 670 L1600 900 L0 900 Z" fill="url(#hillFront)"/>

  <g opacity="0.4" fill="#065f46">
    <circle cx="140" cy="730" r="70"/>
    <circle cx="250" cy="760" r="56"/>
    <circle cx="1510" cy="730" r="72"/>
    <circle cx="1410" cy="770" r="52"/>
  </g>
</svg>
